<?xml version="1.0" encoding="UTF-8"?>
<!-- Nexify Logo — Verde Limão version (for dark backgrounds) -->
<svg xmlns="http://www.w3.org/2000/svg" xml:space="preserve" width="5.68021in" height="1.5293in" version="1.1" style="shape-rendering:geometricPrecision; text-rendering:geometricPrecision; image-rendering:optimizeQuality; fill-rule:evenodd; clip-rule:evenodd"
viewBox="0 0 4764.9 1282.87">
 <defs>
  <style type="text/css">
   <![CDATA[
    .w {fill:#c8f540;stroke:none}
   ]]>
  </style>
  <mask id="dotCutout">
   <rect width="100%" height="100%" fill="white"/>
   <ellipse cx="4200.36" cy="769.04" rx="100" ry="95" fill="black"/>
  </mask>
 </defs>
 <g id="Layer_x0020_1">
  <g>
   <g mask="url(#dotCutout)">
    <g>
     <path class="w" d="M3831.03 425.6c0,37.96 10.08,71.63 35.29,96.84 69.08,69.08 130.5,2.71 170.59,57.23 50.79,69.06 22.96,227.09 -20.92,299.71 -22.16,36.67 -66.51,89.89 -93.8,124.9 -8.23,10.57 -14.81,16.64 -22.89,27.23l-121.02 152.37c-86.84,109.82 -52,89.2 189.44,89.2 73.07,0 115.05,-88.28 174.47,-167.26 7.04,-9.36 10.77,-15.63 16.88,-24.13l352.83 -467.31c66.04,-84.02 29.04,-56.65 130.17,-56.65 91.67,0 159.14,-127.05 78.78,-210.91 -73.69,-76.9 -215.47,-19.61 -215.47,83.33 0,75.02 28.06,64.28 -72.83,113.98 -25.5,12.56 -119.99,54.61 -145.87,54.61 -65.88,0 -80.01,-13.1 -133,-49.26 -122.71,-83.74 -57.1,-67.51 -79.35,-148.41 -25.76,-93.64 -142.59,-116.26 -205.88,-56.52 -17.28,16.31 -37.42,49.22 -37.42,81.05zm287.05 341.73c0,109.49 164.03,96.88 164.03,4.56 0,-108.22 -164.03,-106.78 -164.03,-4.56z"/>
     <path class="w" d="M3357.17 325.36c-32.76,7.84 -73.52,-1.68 -92.11,8.13 -27.18,14.35 -24.18,76.01 -17.25,105.78l95.69 9.12c-2.92,35.05 -10.28,74.63 -15.69,111.89 -5.82,40.05 -11.04,80.64 -15.39,116.74 -4.99,41.52 -10.22,76.06 -14.86,117.27 -18,159.9 -54.67,132.51 146.18,132.51 24.8,0 25.61,-34.28 27.77,-58.8 2.25,-25.53 6.29,-52.61 10.05,-81.08l40.12 -315.4c6.34,-44.35 23.16,-19.36 88.63,-25.57l56.14 -0.09c12.24,0.98 30.65,1.24 49.71,-2.98 20.16,-4.46 20.75,-11.07 25.12,-34.15 18.87,-99.75 13.14,-83.38 -197.29,-83.38 0,-45.74 14.01,-123.06 46.65,-149.28 19.38,-15.57 83.77,-23.36 113.34,-23.36 33.69,0.01 5.53,5.56 63.95,1.14 8.4,-0.63 11.96,0.54 17.07,1.23 14.87,2.03 30.44,1.83 41.99,-2.32 23.43,-8.42 26.84,-54.19 26.84,-78.02 0,-13.99 -4.22,-27.34 -18.22,-27.34 -103.2,0 -256.01,-13.08 -335.77,24.19 -24.92,11.64 -59.41,37.21 -75.08,57.05 -61.4,77.74 -46.54,152.87 -67.57,196.7z"/>
     <path class="w" d="M2933.43 926.8c46.25,0 122.23,5.18 164.03,-4.56 13.6,-58.37 31.36,-215.58 40.76,-282.74 7,-50.08 36.7,-255.56 36.7,-291.36 0,-10.43 -1.55,-5.29 -4.56,-18.22 -41.41,-9.65 -109.76,-4.55 -154.91,-4.55 -47.66,0 -37.59,63.62 -47.44,134.81l-52.07 403.62c-2.83,26.13 -10,63 17.5,63z"/>
     <path class="w" d="M2992.67 129.44c0,71.92 53.01,118.47 132.13,118.47 97.17,0 150.07,-141.59 71.73,-208.42 -20.91,-17.83 -57.2,-32.81 -84.03,-31.1 -37.73,2.41 -61.15,9.55 -84.76,33.11 -18.7,18.66 -35.07,52 -35.07,87.94z"/>
    </g>
    <g>
     <path class="w" d="M855.74 931.35c175.31,0 279.52,29.54 306.64,-139.88 29.71,-185.61 54.09,-417.54 82.02,-610.55l16.86 -124.39c-41.92,-28.07 -27.91,-13.32 -95.65,-13.64 -45.38,-0.22 -80.36,-9.97 -89.45,29.02l-79.17 636.18c-18.75,-5.01 -66.07,-89.19 -76.57,-105.68l-284.25 -444.77c-20.24,-31.55 -49.69,-85.1 -78.34,-103.91 -30.69,-20.14 -259.65,-30.9 -294.53,30.23 -19.65,34.44 16.68,81.91 42.93,121.13l71.06 111.2c24.43,36.79 45.8,73.23 71.15,111.1 7.82,11.68 10,16.11 17.36,28.21 6.93,11.39 12.03,16.44 18.87,26.69l106.77 166.62c12.14,18.28 24.32,36.41 36.5,54.62 12.31,18.42 22.68,36.46 35.53,55.6 68.05,101.4 87.09,172.22 192.29,172.22z"/>
     <path class="w" d="M1293.15 739.99c0,40.64 -1.09,74.43 21.71,110.42 11.32,17.88 29.89,37.19 47.31,48.37 35.22,22.61 97.09,32.57 154.24,32.57l378.18 0c71.9,0 77.46,-27.88 77.46,-100.24 0,-39.56 -73.55,-27.34 -118.46,-27.34 -58.52,0 -315.7,9.95 -352.71,-11.79 -25.34,-14.89 -27.17,-43.34 -20.91,-70.22 30.67,-14.72 135.21,-6.76 173.66,-7.24 22.51,-0.28 -4.26,2.68 17.71,2.68l335.41 -6.31c40.54,-11.65 36.71,-81.97 44.14,-138.12l7.74 -110.72c0,-80.12 -65.03,-132.13 -145.8,-132.13l-405.51 0c-85.18,0 -154.13,52.65 -178.34,131.49 -12.27,39.95 -35.81,230.71 -35.81,278.58zm205.04 -123.02l387.29 0c19.42,0 16.92,-32.52 19.6,-53.3 2.82,-21.8 6.37,-41.92 4.26,-61.4 -5.04,-46.54 -28.87,-67.56 -78.54,-67.56l-255.16 0c-86.84,0 -89.25,91.08 -96.55,131.62 -3.13,17.35 -5.5,50.64 19.09,50.64z"/>
     <path class="w" d="M2113.29 348.14c0,21.87 92.01,109.78 114.33,136.27l122.6 128.01c-15.69,23.44 -229.68,206.11 -281.3,256.35 -10.99,10.69 -37.64,24.77 -37.64,39.82 0,14.01 13.35,18.22 27.34,18.22l164.03 0c31.38,0 54.45,-37.87 91.81,-67.67l140.57 -132.81 69.45 76.35c134.6,152.83 61.98,124.12 304.17,124.12 12.31,0 12.56,-2.17 22.78,-4.56 -0.61,-27.37 -8.7,-29.58 -23.94,-44.4l-235.77 -260.88c18.83,-28.12 287.05,-252.84 287.05,-273.38 0,-10.5 -3.17,-13.67 -13.67,-13.67l-191.37 0c-10.14,0 -60.09,44.91 -71.82,55.76 -8.59,7.95 -14.33,14.39 -22.7,22.86 -12.59,12.75 -81.21,76.68 -96.85,80.85l-120.39 -125.66c-10.91,-14.19 -26.07,-33.82 -48.2,-33.82l-182.25 0c-10.66,0 -18.22,7.56 -18.22,18.22z"/>
     <path class="w" d="M8.26 904.02c0,23.97 21,27.34 50.12,27.34 64.22,0 172.34,9.53 213.48,-14.34 33.12,-19.22 48.57,-103.71 57.95,-147.09 8.45,-39.09 17.6,-70.37 27.42,-109.27 33.4,-132.26 45.39,-97.54 -54.63,-246.9 -15.74,-23.5 -27.32,-43.48 -42.78,-66.58 -21.42,-32.01 -29.81,-49.16 -69.3,-49.16 -45.75,0 -53.05,75.51 -66.52,129.4 -7,28.02 -13.39,50.32 -20.09,75.6 -12.31,46.48 -95.65,371.5 -95.65,400.99z"/>
    </g>
   </g>
   <ellipse cx="4200.36" cy="769.04" rx="81.68" ry="76.93" fill="none" stroke="none"/>
  </g>
 </g>
</svg>
